<?xml version="1.0" encoding="UTF-8" standalone="no"?>
<!-- Generator: Adobe Illustrator 24.3.0, SVG Export Plug-In . SVG Version: 6.00 Build 0)  -->

<svg
   version="1.1"
   id="Icona"
   inkscape:version="1.1 (c68e22c387, 2021-05-23)"
   sodipodi:docname="icon-light.svg"
   x="0px"
   y="0px"
   viewBox="0 0 2000 2000"
   xml:space="preserve"
   width="2000"
   height="2000"
   xmlns:inkscape="http://www.inkscape.org/namespaces/inkscape"
   xmlns:sodipodi="http://sodipodi.sourceforge.net/DTD/sodipodi-0.dtd"
   xmlns="http://www.w3.org/2000/svg"
   xmlns:svg="http://www.w3.org/2000/svg"><defs
   id="defs41" /><sodipodi:namedview
   id="namedview39"
   pagecolor="#ffffff"
   bordercolor="#999999"
   borderopacity="1"
   inkscape:pageshadow="0"
   inkscape:pageopacity="0"
   inkscape:pagecheckerboard="0"
   showgrid="false"
   inkscape:zoom="0.31866295"
   inkscape:cx="986.93619"
   inkscape:cy="1001.0577"
   inkscape:window-width="1600"
   inkscape:window-height="833"
   inkscape:window-x="0"
   inkscape:window-y="30"
   inkscape:window-maximized="1"
   inkscape:current-layer="Icona" />
<style
   type="text/css"
   id="style2">
	.st0{fill:#FFFFFF;stroke:#007CFF;stroke-width:10;stroke-miterlimit:10;}
	.st1{fill:#007CFF;}
	.st2{fill:#FFFFFF;}
	.st3{fill:#FF2300;stroke:#007CFF;stroke-width:10;stroke-miterlimit:10;}
	.st4{fill:#00BB00;stroke:#007CFF;stroke-width:10;stroke-miterlimit:10;}
	.st5{fill:none;stroke:#FFFFFF;stroke-width:40;}
</style>
<g
   id="Sfondo"
   transform="translate(-15.049988,10.5)"
   inkscape:export-filename="/home/sav/Documents/GitHub/mozita-l10n-addon/img/icon-light-96.png"
   inkscape:export-xdpi="4.6079998"
   inkscape:export-ydpi="4.6079998">
	<path
   id="Sfondo2"
   inkscape:connector-curvature="0"
   class="st0"
   d="m 922.5,1864.5 c -483.2,0 -875,-391.8 -875,-875 0,-483.2 391.8,-875 875,-875 483.2,0 875,391.8 875,875 0,483.2 -391.8,875 -875,875 z" />
	<path
   id="Sfondo1"
   inkscape:connector-curvature="0"
   class="st1"
   d="m 922.5,1815.3 c -456.1,0 -825.8,-369.8 -825.8,-825.8 0,-456 369.8,-825.8 825.8,-825.8 456,0 825.8,369.8 825.8,825.8 0,456 -369.7,825.8 -825.8,825.8 z" />
</g>
<g
   id="Dinosauro"
   transform="translate(-15.049988,10.5)"
   inkscape:export-filename="/home/sav/Documents/GitHub/mozita-l10n-addon/img/icon-light-96.png"
   inkscape:export-xdpi="4.6079998"
   inkscape:export-ydpi="4.6079998">
	<g
   id="g133">
		<path
   id="path129"
   inkscape:connector-curvature="0"
   class="st2"
   d="m 801,729.8 c 3.1,-0.2 6.2,0.2 9.2,0.9 6.6,3.6 2.1,11.5 0.5,17.4 -35.1,105.7 -55.2,192.1 -116.8,199.2 -85.5,16.7 -141.4,-53.4 -105.3,-78.4 57.9,-34.8 57.9,-34.8 90.3,-56.9 25.8,-20.7 49.2,-44.3 76.7,-62.8 13.8,-9.3 28.7,-17.9 45.4,-19.4 z" />
		<path
   id="path131"
   inkscape:connector-curvature="0"
   class="st2"
   d="M 693.9,947.3 C 608.4,964 552.5,893.9 588.6,868.9 c 57.9,-34.8 57.9,-34.8 90.3,-56.9 29.9,-23 94.1,-90.9 131.3,-81.3 6.6,3.6 2.1,11.5 0.5,17.4 -35.1,105.6 -55.2,192 -116.8,199.2" />
	</g>
	<g
   id="g139">
		<path
   id="path135"
   inkscape:connector-curvature="0"
   class="st2"
   d="m 576.1,1340.3 11.3,9.4" />
		<path
   id="path137"
   inkscape:connector-curvature="0"
   class="st2"
   d="m 576.1,1340.3 11.3,9.4" />
	</g>
	<path
   id="path141"
   inkscape:connector-curvature="0"
   class="st2"
   d="m 539.9,1434.7 v 0" />
	<g
   id="g147">
		<path
   id="path143"
   inkscape:connector-curvature="0"
   class="st2"
   d="m 545.1,1434.7 c -4.8,-1.4 -5.2,-1.8 -5.2,-5.1 0,-37.1 11.6,-60.6 36.2,-89.3 8.2,29.2 37.1,47.9 60.2,66.3 1.8,1.4 -47.7,23.7 -87.5,28.1" />
		<path
   id="path145"
   inkscape:connector-curvature="0"
   class="st2"
   d="m 545.1,1434.7 c -4.8,-1.4 -5.2,-1.8 -5.2,-5.1 0,-37.1 11.6,-60.6 36.2,-89.3 8.2,29.2 37.1,47.9 60.2,66.3 1.8,1.4 -47.7,23.7 -87.5,28.1" />
	</g>
	<g
   id="g153">
		<path
   id="path149"
   inkscape:connector-curvature="0"
   class="st2"
   d="m 968.6,183.1 c 16.2,0.7 26.2,9.7 32.4,23.9 19,46 21.2,56.3 30,71 24,40 44.1,66.3 37.6,64.8 -68,-15.7 -123.1,-30.2 -202.1,-17.8 -28.6,4.5 -52.9,16 -79,28.2 22.9,-50.9 60.1,-95.9 102.8,-131.5 22.3,-18.5 48.5,-37.2 78.3,-38.6 z" />
		<path
   id="path151"
   inkscape:connector-curvature="0"
   class="st2"
   d="m 787.5,353.2 c 34.3,-84.1 180.1,-227 213.5,-146.2 19,46 21.2,56.3 30,71 24,40 44.1,66.3 37.6,64.8 -68,-15.7 -123.1,-30.2 -202.1,-17.8 -28.6,4.5 -52.9,16 -79,28.2" />
	</g>
	<g
   id="g159">
		<path
   id="path155"
   inkscape:connector-curvature="0"
   class="st2"
   d="m 1361.9,541.3 c 12.7,0 72.1,1.6 54.6,28.7 -15.5,22.5 -18.5,49.5 -29.9,64.9 -16.4,-27.2 -16.4,-27.2 -60.8,-89.8 11.8,-2.9 24,-3.5 36.1,-3.8 z" />
		<path
   id="path157"
   inkscape:connector-curvature="0"
   class="st2"
   d="m 1386.6,634.9 c -16.4,-27.2 -16.4,-27.2 -60.8,-89.8 34.8,-8.5 110.7,-4.3 90.7,24.8 -15.5,22.6 -18.5,49.6 -29.9,65" />
	</g>
	<g
   id="g165">
		<path
   id="path161"
   inkscape:connector-curvature="0"
   class="st2"
   d="m 943.3,397 c 42.1,0 84.2,6.1 123.7,21 206,79.8 307.5,308.8 401.2,491.2 51.6,111.4 51.6,111.4 71.9,159.3 -0.5,0 -1,0 -1,0.5 C 1468.1,920.5 1391.4,773.8 1298.2,637.5 1248.5,574.1 1196.9,510.2 1123,473.7 1002.5,414.2 891.7,412.3 767,479.6 694.2,519 625,589.9 582.3,662.2 c -49.9,84.6 -90.4,139.3 -123.1,247.1 -23.8,78.5 -35.6,113.2 -42.4,152.1 -29.1,166.3 -26.3,228.1 -11,321.5 9.2,56 37.3,100.8 73.8,126.5 16.7,11.7 53.1,21.9 60.3,23.1 64.7,10.9 97.5,2.8 160.3,-14.6 175.7,-65.8 308.4,-198.8 365.9,-373.7 26.6,-116.1 32.3,-252.9 -39.1,-354.9 0,-0.5 0,-0.5 0.5,-0.5 18.4,5.6 33,21.4 42,37.6 28.1,50.6 36.7,133.7 36.7,191.9 0,147.1 -16.4,173.3 -51.2,260.7 -30.9,56.4 -58.4,99.5 -109.1,152.8 -25.7,27 -88.3,70.5 -88.8,71 -99,64.4 -226.4,122.2 -346.6,94.9 -25.7,-5.8 -50.4,-18.2 -67.6,-34.3 -155.9,-145.1 -87.8,-426.6 -38,-604.4 15.3,-54.6 36.5,-103.3 52.6,-139.7 64.5,-145.5 135,-267 292.8,-369.5 45.1,-29 97.6,-44.9 150.7,-50.5 18.7,-2 23.7,-1.7 42.3,-2.3 z" />
		<path
   id="path163"
   inkscape:connector-curvature="0"
   class="st2"
   d="m 1540.1,1068.6 c -0.5,0 -1,0 -1,0.5 C 1468.1,920.6 1391.4,773.9 1298.2,637.6 1248.5,574.2 1196.9,510.3 1123,473.8 1002.5,414.3 891.7,412.4 767,479.7 694.2,519 625,589.9 582.3,662.2 c -49.9,84.6 -90.4,139.3 -123.1,247.1 -23.8,78.5 -35.6,113.2 -42.4,152.1 -29.1,166.3 -26.3,228.1 -11,321.5 9.2,56 37.3,100.8 73.8,126.5 16.7,11.7 53.1,21.9 60.3,23.1 64.7,10.9 97.5,2.8 160.3,-14.6 175.7,-65.8 308.4,-198.8 365.9,-373.7 26.6,-116.1 32.3,-252.9 -39.1,-354.9 0,-0.5 0,-0.5 0.5,-0.5 18.4,5.6 33,21.4 42,37.6 28.1,50.6 36.7,133.7 36.7,191.9 0,147.1 -16.4,173.3 -51.2,260.7 -30.9,56.4 -58.4,99.5 -109.1,152.8 -25.7,27 -88.3,70.5 -88.8,71 -99,64.4 -226.4,122.2 -346.6,94.9 -25.7,-5.8 -50.4,-18.2 -67.6,-34.3 -155.9,-145.1 -87.8,-426.6 -38,-604.4 15.3,-54.6 36.5,-103.3 52.6,-139.7 64.5,-145.5 135,-267 292.8,-369.5 94.7,-61.4 230,-65.3 316.6,-31.7 206,79.8 307.5,308.8 401.2,491.2 51.7,111.4 51.7,111.4 72,159.3" />
	</g>
	<g
   id="g171">
		<path
   id="path167"
   inkscape:connector-curvature="0"
   class="st2"
   d="m 1275.6,349.2 c 14.6,0.1 8.3,-0.2 18.8,0.4 6.4,1.5 22.9,2.6 26.4,14.2 1.4,4.6 4,5.3 -17.2,56.6 -6.6,16 -13,38.4 -21,71.6 -4.2,-1.4 -44.4,-43.8 -68.4,-61.8 -12.4,-10 -58.4,-42.2 -69.3,-48.2 -4.3,-2.4 83.7,-26.8 83.7,-26.8 11.6,-2.7 23.4,-4.5 35.3,-5.4 3.9,-0.3 7.8,-0.4 11.7,-0.6 z" />
		<path
   id="path169"
   inkscape:connector-curvature="0"
   class="st2"
   d="m 1144.9,382 c -4.3,-2.4 83.7,-26.8 83.7,-26.8 0,0 31.4,-8.1 65.8,-5.6 6.4,1.5 22.9,2.6 26.4,14.2 1.4,4.6 4,5.3 -17.2,56.6 -6.6,16 -13,38.4 -21,71.6 -4.2,-1.4 -44.4,-43.8 -68.4,-61.8 -12.4,-10 -58.4,-42.2 -69.3,-48.2 z" />
	</g>
	<g
   id="g177">
		<path
   id="path173"
   inkscape:connector-curvature="0"
   class="st2"
   d="m 1116.6,851.8 c 13,0.2 25.9,2.1 38.7,4.2 42,4 45.4,13.6 41.2,16 -19.6,11.3 -17.9,9 -37.9,26.3 -14.8,12.8 -36.6,42.5 -36.9,37.1 -0.3,-5.4 -3.8,-30.1 -6.4,-45.1 -2.7,-15 -8.4,-32.1 -9.3,-35.3 -0.5,-3.5 8.8,-3.1 10.6,-3.2 z" />
		<path
   id="path175"
   inkscape:connector-curvature="0"
   class="st2"
   d="m 1106,855 c 1,3.3 6.7,20.3 9.3,35.3 2.7,15 6.1,39.8 6.4,45.1 0.3,5.3 22.2,-24.4 36.9,-37.1 20,-17.3 18.3,-15 37.9,-26.3 4.2,-2.4 0.8,-12 -41.2,-16 -22,-3.7 -51,-6.7 -49.3,-1 z" />
	</g>
</g>
<g
   id="Anelli"
   transform="translate(-15.049988,10.5)"
   inkscape:export-xdpi="4.6079998"
   inkscape:export-ydpi="4.6079998"
   inkscape:export-filename="/home/sav/Documents/GitHub/mozita-l10n-addon/img/icon-light-96.png">
	<path
   id="Rosso_1_"
   inkscape:connector-curvature="0"
   class="st3"
   d="m 1825.2,580.8 h 5.6 l 2.7,0.1 h 2.3 l 4.6,0.1 4.6,0.1 4.5,0.2 4.5,0.2 4.4,0.3 4.3,0.3 4.3,0.3 4.2,0.4 4.1,0.4 4.1,0.5 4,0.5 4,0.5 3.9,0.6 3.8,0.6 3.8,0.7 3.7,0.7 3.6,0.7 3.6,0.8 3.5,0.8 3.4,0.9 3.4,0.9 3.3,0.9 3.2,1 3.2,1 3.1,1.1 3.1,1.1 3,1.1 2.9,1.2 2.9,1.2 2.8,1.3 2.7,1.3 2.7,1.3 2.6,1.4 2.5,1.4 2.5,1.5 2.4,1.5 2.3,1.5 2.3,1.6 2.2,1.6 2.1,1.7 2.1,1.7 2,1.7 1.9,1.8 1.9,1.8 1.8,1.9 1.7,1.9 1.7,1.9 1.6,2 1.5,2 1.5,2.1 1.4,2.1 1.3,2.2 1.2,2.2 1.2,2.2 1.1,2.3 1,2.3 1,2.4 0.9,2.4 0.8,2.4 0.8,2.5 0.7,2.5 0.6,2.6 0.6,2.6 0.3,1.3 v 0 l 0.2,1.2 0.4,2.4 0.4,2.4 0.3,2.4 0.3,2.4 0.3,2.5 0.2,2.5 0.2,2.5 0.2,2.5 0.1,2.5 0.1,2.5 0.1,2.5 v 2.5 2.6 2.6 2.6 l -0.1,2.6 -0.1,2.6 -0.2,3.9 -0.4,5.2 -0.5,5.3 -0.6,5.3 -0.7,5.3 -0.8,5.3 -0.9,5.4 -1,5.4 -1.1,5.4 -1.2,5.4 -1.3,5.4 -1.4,5.4 -1.5,5.4 -1.5,5.5 -1.6,5.5 -1.7,5.5 -1.8,5.5 -1.8,5.4 -1.9,5.4 -2,5.4 -2,5.4 -2.1,5.4 -2.1,5.4 -2.2,5.4 -2.2,5.3 -2.3,5.3 -2.3,5.3 -2.4,5.3 -2.4,5.2 -2.5,5.2 -2.5,5.2 -2.5,5.1 -2.6,5.1 -2.6,5 -2.6,5 -2.6,4.9 -2.7,4.9 -2.7,4.8 -2.7,4.8 -2.7,4.7 -2.7,4.6 -2.7,4.6 -2.7,4.5 -2.7,4.4 -2.7,4.4 -2.7,4.3 -2.7,4.2 -2.7,4.1 -2.7,4.1 -2.7,4 -2.6,3.9 -2.6,3.8 -2.6,3.7 -2.6,3.6 -2.5,3.5 -1.2,1.7 v 0 l -2.8,3.8 -5.6,7.6 -5.6,7.5 -5.6,7.5 -5.7,7.4 -5.7,7.4 -5.7,7.3 -5.7,7.3 -5.7,7.2 -5.8,7.1 -5.8,7.1 -5.8,7 -5.8,7 -5.8,6.9 -5.8,6.9 -5.8,6.8 -5.8,6.8 -5.8,6.7 -5.8,6.7 -5.8,6.6 -5.8,6.5 -5.8,6.5 -5.8,6.4 -5.8,6.4 -5.8,6.3 -5.8,6.3 -5.8,6.2 -5.8,6.2 -5.8,6.1 -5.8,6 -5.8,6 -5.8,5.9 -5.8,5.9 -5.8,5.8 -5.8,5.8 -5.8,5.7 -5.8,5.6 -5.7,5.6 -5.7,5.5 -5.7,5.5 -5.7,5.4 -5.7,5.4 -5.7,5.3 -5.6,5.2 -5.6,5.2 -5.6,5.1 -5.6,5.1 -5.6,5 -5.5,5 -5.5,4.9 -5.5,4.8 -5.4,4.8 -5.4,4.7 -5.4,4.7 -5.4,4.6 -5.3,4.6 -5.3,4.5 -5.2,4.4 -5.2,4.4 -5.2,4.3 -5.1,4.3 -5.1,4.2 -5.1,4.1 -5,4.1 -5,4 -4.9,4 -4.9,3.9 -4.8,3.8 -4.8,3.8 -4.8,3.7 -4.7,3.7 -4.7,3.6 -4.6,3.6 -4.6,3.5 -4.5,3.4 -4.4,3.4 -4.4,3.3 -4.3,3.2 -4.3,3.2 -4.2,3.1 -4.2,3.1 -4.1,3 -4,2.9 -4,2.9 -3.9,2.8 -3.9,2.8 -3.8,2.7 -3.7,2.6 -3.7,2.6 -3.6,2.5 -3.5,2.5 -3.4,2.4 -3.4,2.3 -3.3,2.3 -3.2,2.2 -3.2,2.2 -3.1,2.1 -3,2 -2.9,2 -2.9,1.9 -2.8,1.8 -2.7,1.8 -2.6,1.7 -2.5,1.7 -2.4,1.6 -2.4,1.5 -2.3,1.5 -1.6,1.1 -1.1,0.7 -1,0.7 -1,0.7 -1,0.6 -1,0.6 -1,0.6 -0.9,0.6 -0.9,0.6 -0.9,0.6 -0.9,0.5 -0.8,0.5 -0.8,0.5 -0.8,0.5 -0.8,0.5 -0.8,0.5 -0.7,0.5 -0.7,0.4 -0.7,0.4 -0.7,0.4 -0.6,0.4 -0.6,0.4 -0.6,0.4 -0.6,0.3 -0.5,0.3 -0.5,0.3 -0.5,0.3 -0.5,0.3 -0.4,0.3 -0.4,0.2 -0.4,0.2 -0.4,0.2 -0.3,0.2 -0.3,0.2 -0.3,0.2 -0.2,0.1 -0.2,0.1 -0.2,0.1 -0.2,0.1 -0.1,0.1 -0.1,0.1 h -0.1 v 0 0 l -8.3,5 -16.7,10 -16.8,10 -16.8,9.9 -16.8,9.9 -12.6,7.3 -8.4,4.9 -8.4,4.8 -8.3,4.8 -8.3,4.8 -8.3,4.7 -8.2,4.7 -8.2,4.7 -8.1,4.6 -8.1,4.6 -8,4.5 -7.9,4.5 -7.9,4.4 -7.8,4.4 -7.7,4.3 -5.7,3.2 -3.8,2.1 -3.8,2.1 -3.7,2.1 -3.7,2.1 -3.7,2.1 -3.7,2 -3.6,2 -3.6,2 -3.6,2 -3.5,2 -3.5,1.9 -3.5,1.9 -3.5,1.9 -3.4,1.9 -3.4,1.9 -3.4,1.8 -3.3,1.8 -3.3,1.8 -3.2,1.8 -3.2,1.8 -3.2,1.7 -3.1,1.7 -3.1,1.7 -3.1,1.7 -3,1.7 -3,1.6 -2.9,1.6 -2.9,1.6 -2.9,1.6 -2.8,1.5 -2.8,1.5 -2.7,1.5 -2.7,1.5 -2.6,1.4 -2.6,1.4 -2.5,1.4 -2.5,1.4 -2.5,1.3 -2.4,1.3 -2.4,1.3 -2.3,1.2 -2.3,1.2 -2.2,1.2 -2.2,1.2 -2.1,1.1 -2,1.1 -2,1.1 -1.9,1 -1.9,1 -1.8,1 -1.8,1 -1.7,0.9 -1.7,0.9 -1.6,0.9 -1.5,0.8 -1.5,0.8 -1.4,0.8 -1.4,0.7 -1.3,0.7 -1.2,0.7 -1.2,0.6 -1.1,0.6 -1,0.6 -1,0.5 -0.9,0.5 -0.8,0.5 -0.8,0.4 -0.7,0.4 -0.6,0.3 -0.6,0.3 -0.5,0.3 -0.4,0.2 -0.4,0.2 -0.3,0.2 -0.2,0.1 -0.2,0.1 h -0.1 v 0 l -0.3,0.1 c -0.3,0.2 -0.2,0.1 -0.4,0.2 -0.9,0.4 -0.4,0.2 -1.6,0.6 -1.1,0.4 -0.6,0.3 -1.4,0.5 -0.8,0.3 -0.3,0.1 -1.5,0.4 -1.2,0.3 -0.7,0.2 -1.5,0.3 -0.8,0.2 -0.3,0.1 -1.4,0.2 -1.2,0.2 -0.7,0.1 -1.6,0.1 -0.3,0 -0.1,0 -0.4,0 h -0.3 -0.3 -0.3 -0.2 c -0.3,0 -0.2,0 -0.3,-0.1 -0.6,-0.1 -0.3,0 -0.8,-0.3 -0.5,-0.2 -0.4,0 -0.5,-0.3 -0.2,-0.2 -0.2,0 -0.1,-0.4 -0.1,-0.4 -0.1,-0.2 0.1,-0.5 0.1,-0.4 0,-0.1 0.5,-0.6 0.4,-0.5 0.2,-0.3 0.7,-0.7 0.2,-0.1 0.1,-0.1 0.3,-0.2 l 0.2,-0.1 v 0 0 l 0.1,-0.1 0.1,-0.1 0.2,-0.1 0.2,-0.1 0.3,-0.2 0.3,-0.2 0.4,-0.2 0.4,-0.2 0.4,-0.3 0.5,-0.3 0.5,-0.3 0.6,-0.4 0.6,-0.4 0.7,-0.4 0.7,-0.4 0.7,-0.5 0.8,-0.5 0.8,-0.5 0.9,-0.5 0.9,-0.6 0.9,-0.6 1,-0.6 1,-0.6 1.1,-0.7 1.1,-0.7 1.1,-0.7 1.2,-0.7 1.2,-0.8 1.2,-0.8 1.3,-0.8 1.3,-0.8 1.4,-0.8 1.4,-0.9 1.4,-0.9 1.5,-0.9 1.5,-0.9 1.5,-1 1.6,-1 1.6,-1 1.6,-1 1.7,-1 1.7,-1.1 1.7,-1.1 1.8,-1.1 1.8,-1.1 1.8,-1.2 1.9,-1.2 1.9,-1.2 1.9,-1.2 2,-1.2 2,-1.3 2,-1.3 2,-1.3 2.1,-1.3 2.1,-1.3 2.1,-1.3 2.2,-1.4 2.2,-1.4 2.2,-1.4 2.2,-1.4 2.3,-1.4 2.3,-1.5 2.3,-1.5 2.3,-1.5 2.4,-1.5 2.4,-1.5 2.4,-1.5 2.5,-1.6 2.5,-1.6 2.5,-1.6 2.5,-1.6 2.5,-1.6 2.6,-1.6 2.6,-1.7 2.6,-1.7 2.6,-1.7 4,-2.6 5.4,-3.5 5.5,-3.5 5.6,-3.6 5.7,-3.7 5.7,-3.7 5.8,-3.8 5.9,-3.8 5.9,-3.9 6,-3.9 6.1,-4 6.1,-4 6.2,-4.1 6.2,-4.1 6.3,-4.2 6.3,-4.2 6.4,-4.2 6.4,-4.3 6.5,-4.3 6.5,-4.4 6.6,-4.4 6.6,-4.4 6.6,-4.5 6.7,-4.5 6.7,-4.5 6.7,-4.6 6.7,-4.6 6.8,-4.6 6.8,-4.6 10.2,-7 13.6,-9.4 13.7,-9.5 13.7,-9.6 13.7,-9.6 13.6,-9.7 13.6,-9.7 13.5,-9.8 13.4,-9.8 13.3,-9.8 9.9,-7.3 6.5,-4.9 6.5,-4.9 6.5,-4.9 6.4,-4.9 6.4,-4.9 6.3,-4.8 6.3,-4.8 6.2,-4.8 6.1,-4.8 6.1,-4.8 6,-4.8 6,-4.8 5.9,-4.7 5.8,-4.7 5.7,-4.7 5.7,-4.7 5.6,-4.7 5.5,-4.6 5.4,-4.6 5.3,-4.6 5.3,-4.5 5.2,-4.5 5.1,-4.5 5,-4.4 4.9,-4.4 4.8,-4.4 4.7,-4.3 4.6,-4.3 3.4,-3.2 2.2,-2.1 2.2,-2.1 2.1,-2.1 2.1,-2.1 2.1,-2.1 2.1,-2.1 2,-2.1 2,-2 2,-2 1.9,-2 1.9,-2 1.9,-2 1.8,-2 1.8,-2 1.8,-2 1.8,-1.9 1.7,-1.9 1.7,-1.9 1.7,-1.9 1.6,-1.9 1.6,-1.9 0.8,-0.9 c 0.1,-0.1 0.2,-0.2 0.3,-0.3 l 2.2,-2 4.3,-4.1 4.3,-4.1 4.3,-4.1 4.2,-4.1 4.2,-4.1 4.1,-4.1 4.1,-4.1 6.1,-6.2 6,-6.2 4,-4.1 3.9,-4.1 3.9,-4.1 3.9,-4.1 3.8,-4.1 3.8,-4.1 3.7,-4.1 3.7,-4.1 3.7,-4.1 3.6,-4.1 3.6,-4.1 3.6,-4.1 3.5,-4 3.5,-4 3.5,-4 3.4,-4 3.4,-4 3.3,-4 3.3,-4 3.3,-4 3.2,-4 3.2,-3.9 3.2,-3.9 3.1,-3.9 3.1,-3.9 3.1,-3.9 3,-3.9 3,-3.9 3,-3.8 2.9,-3.8 2.9,-3.8 2.8,-3.8 2.8,-3.8 2.8,-3.7 2.7,-3.7 2.7,-3.7 2.7,-3.7 2.6,-3.7 2.6,-3.6 2.6,-3.6 2.5,-3.6 2.5,-3.6 2.5,-3.5 2.4,-3.5 2.4,-3.5 2.4,-3.5 2.3,-3.4 2.3,-3.4 2.3,-3.4 2.2,-3.3 2.2,-3.3 2.2,-3.3 2.1,-3.2 2.1,-3.2 2.1,-3.2 2,-3.2 2,-3.1 1.9,-3.1 1.9,-3 1.9,-3 1.8,-3 1.8,-2.9 1.8,-2.9 1.7,-2.9 1.7,-2.8 1.7,-2.8 1.6,-2.8 1.6,-2.7 1.6,-2.7 1.5,-2.6 1.5,-2.6 1.5,-2.5 1.4,-2.5 1.4,-2.5 1.4,-2.4 1.3,-2.4 1.3,-2.3 1.3,-2.3 1.2,-2.2 1.2,-2.2 1.2,-2.1 1.1,-2.1 1.1,-2 1.1,-2 1.1,-2 1,-1.9 1,-1.8 1,-1.8 0.9,-1.7 0.9,-1.7 0.9,-1.6 0.8,-1.6 0.8,-1.5 0.8,-1.5 0.7,-1.4 0.7,-1.4 0.7,-1.3 0.6,-1.3 0.6,-1.2 0.6,-1.1 0.5,-1.1 0.5,-1 0.5,-1 0.4,-0.9 0.4,-0.8 0.4,-0.8 0.3,-0.7 0.3,-0.7 0.3,-0.6 0.2,-0.5 0.2,-0.5 0.2,-0.4 0.2,-0.3 0.1,-0.3 0.1,-0.2 0.1,-0.1 v -0.1 -0.1 -0.1 l 0.1,-0.2 0.1,-0.2 0.1,-0.3 0.1,-0.3 0.2,-0.4 0.2,-0.4 0.2,-0.5 0.2,-0.5 0.2,-0.6 0.3,-0.6 0.3,-0.7 0.3,-0.7 0.3,-0.8 0.3,-0.8 0.3,-0.9 0.4,-0.9 0.4,-1 0.4,-1 0.4,-1 0.4,-1.1 0.4,-1.1 0.4,-1.2 0.4,-1.2 0.5,-1.2 0.5,-1.3 0.5,-1.3 0.5,-1.3 0.5,-1.4 0.5,-1.4 0.5,-1.5 0.5,-1.5 0.5,-1.5 0.5,-1.6 0.8,-2.4 1.1,-3.3 1.1,-3.4 1.1,-3.5 1.1,-3.6 1.1,-3.7 1.1,-3.8 1.1,-3.9 1.1,-4 1.1,-4.1 1.1,-4.2 1,-4.2 1,-4.3 1,-4.3 0.9,-4.4 0.9,-4.4 0.8,-4.5 0.8,-4.5 0.7,-4.5 0.7,-4.6 0.6,-4.6 0.6,-4.6 0.5,-4.6 0.4,-4.6 0.3,-4.6 0.2,-4.6 0.2,-4.5 0.1,-4.5 v -4.5 l -0.1,-4.5 -0.2,-3.3 -0.2,-2.2 -0.2,-2.2 -0.2,-2.2 -0.2,-2.2 -0.3,-2.2 -0.3,-2.1 -0.3,-2.1 -0.4,-2.1 -0.4,-2.1 -0.4,-2.1 -0.5,-2.1 -0.5,-2 -0.5,-2 -0.6,-2 -0.6,-2 -0.6,-2 -0.7,-1.9 -0.7,-1.9 -0.7,-1.9 -0.8,-1.9 -0.8,-1.8 -0.8,-1.8 -0.9,-1.8 -0.9,-1.8 -1,-1.7 -1,-1.7 -1,-1.7 -1.1,-1.6 -1.1,-1.6 -1.2,-1.6 -1.2,-1.5 -0.6,-0.8 -0.9,-1 -1.8,-2.1 -1.8,-2.1 -1.9,-2 -2,-2 -2,-2 -2.1,-2 -2.2,-1.9 -2.2,-1.9 -2.3,-1.9 -2.4,-1.8 -2.5,-1.8 -2.6,-1.8 -2.7,-1.7 -2.8,-1.7 -2.9,-1.7 -2.2,-1.2 -1.5,-0.8 -1.5,-0.8 -1.6,-0.8 -1.6,-0.8 -1.6,-0.8 -1.7,-0.8 -1.7,-0.7 -1.7,-0.7 -1.8,-0.7 -1.8,-0.7 -1.8,-0.7 -1.8,-0.7 -1.9,-0.7 -1.9,-0.7 -1.9,-0.6 -2,-0.6 -2,-0.6 -2,-0.6 -2.1,-0.6 -2.1,-0.6 -2.2,-0.6 -2.2,-0.6 -2.2,-0.5 -2.3,-0.5 -2.3,-0.5 -2.3,-0.5 -2.4,-0.5 -2.4,-0.5 -2.5,-0.5 -2.5,-0.4 -2.6,-0.4 -1.3,-0.2 v 0 l -1.3,-0.2 -2.6,-0.4 -2.6,-0.4 -2.5,-0.4 -2.4,-0.4 -2.3,-0.3 -2.3,-0.3 -2.2,-0.3 -2.1,-0.3 -2.1,-0.3 -2,-0.3 -1.9,-0.2 -1.9,-0.2 -1.8,-0.2 -1.8,-0.2 -1.7,-0.2 -1.6,-0.2 -1.6,-0.2 -1.5,-0.1 -1.5,-0.1 -1.4,-0.1 -1.3,-0.1 -1.3,-0.1 -1.2,-0.1 -1.2,-0.1 -1.1,-0.1 -1.1,-0.1 h -1 -1 -0.9 -0.9 -0.8 -0.8 -0.7 -0.7 -0.6 -0.6 -0.5 -0.5 -0.4 -0.5 -0.6 -0.1 -0.1 l -0.2,0.1 h -0.2 -0.1 c -2.3,0.4 -5.7,1.4 -7.8,0 -0.1,-0.1 -0.1,-0.3 -0.2,-0.4 -0.1,-0.7 0.9,-1.7 2.6,-2.6 v 0 l 0.7,-0.3 1,-0.5 1.2,-0.5 1.3,-0.4 1.4,-0.4 1.3,-0.3 1.3,-0.3 h 0.2 l 0.4,-0.1 0.8,-0.2 0.9,-0.2 0.9,-0.2 1,-0.2 1.1,-0.2 1.1,-0.2 1.2,-0.2 1.2,-0.3 1.3,-0.3 1.4,-0.3 1.4,-0.3 1.5,-0.3 1.5,-0.3 1.6,-0.3 1.6,-0.3 1.7,-0.3 1.7,-0.3 1.8,-0.3 1.8,-0.3 1.9,-0.3 1.9,-0.3 2,-0.3 2,-0.3 2.1,-0.3 2.1,-0.3 2.1,-0.3 2.2,-0.3 2.2,-0.3 2.3,-0.3 2.3,-0.3 2.3,-0.3 2.4,-0.3 2.4,-0.3 2.4,-0.3 2.5,-0.3 2.5,-0.2 3.8,-0.3 5.1,-0.4 5.2,-0.4 5.3,-0.3 5.4,-0.3 5.5,-0.2 5.5,-0.1 z m -107.7,17.8 z" />
	<path
   id="Bianco"
   inkscape:connector-curvature="0"
   class="st0"
   d="m 1741.3,445.2 5.4,0.1 2.6,0.1 h 2.3 l 4.5,0.1 4.5,0.2 4.4,0.2 4.3,0.2 4.3,0.3 4.2,0.3 4.2,0.4 4.1,0.4 4,0.4 4,0.5 3.9,0.5 3.9,0.6 3.8,0.6 3.7,0.7 3.7,0.7 3.6,0.7 3.5,0.8 3.5,0.8 3.4,0.9 3.4,0.9 3.3,1 3.2,1 3.2,1 3.1,1.1 3,1.1 3,1.2 2.9,1.2 2.8,1.3 2.8,1.3 2.7,1.3 2.7,1.4 2.6,1.4 2.5,1.5 2.5,1.5 2.4,1.6 2.3,1.6 2.3,1.6 2.2,1.7 2.1,1.7 2.1,1.8 2,1.8 1.9,1.9 1.9,1.9 1.8,1.9 1.7,2 1.7,2 1.6,2.1 1.5,2.1 1.5,2.2 1.4,2.2 1.3,2.2 1.3,2.3 1.2,2.3 1.1,2.4 1.1,2.4 1,2.5 0.9,2.5 0.9,2.6 0.8,2.6 0.7,2.6 0.7,2.7 0.6,2.7 0.5,2.8 0.2,1.4 v 0 l 0.2,1.3 0.4,2.6 0.4,2.6 0.3,2.6 0.3,2.6 0.3,2.6 0.2,2.6 0.2,2.7 0.2,2.7 0.1,2.7 0.1,2.7 0.1,2.7 v 2.7 2.7 2.7 2.7 l -0.1,2.8 -0.1,2.8 -0.2,4.2 -0.4,5.6 -0.5,5.6 -0.6,5.7 -0.7,5.7 -0.8,5.7 -0.9,5.7 -1,5.8 -1.1,5.8 -1.2,5.8 -1.2,5.8 -1.3,5.8 -1.4,5.8 -1.5,5.8 -1.6,5.8 -1.6,5.8 -1.7,5.8 -1.8,5.8 -1.8,5.8 -1.9,5.8 -2,5.8 -2,5.8 -2.1,5.7 -2.1,5.7 -2.2,5.7 -2.2,5.7 -2.3,5.6 -2.3,5.6 -2.4,5.6 -2.4,5.5 -2.4,5.5 -2.5,5.5 -2.5,5.4 -2.5,5.4 -2.5,5.3 -2.6,5.3 -2.6,5.2 -2.6,5.1 -2.6,5.1 -2.6,5 -2.6,5 -2.6,4.9 -2.6,4.8 -2.6,4.7 -2.6,4.7 -2.6,4.6 -2.6,4.5 -2.6,4.4 -2.6,4.3 -2.6,4.2 -2.6,4.2 -2.5,4.1 -2.5,4 -2.5,3.9 -2.5,3.8 -1.2,1.8 v 0 l -2.7,4.1 -5.4,8.1 -5.5,8 -5.5,8 -5.5,7.9 -5.5,7.9 -5.5,7.8 -5.6,7.7 -5.6,7.7 -5.6,7.6 -5.6,7.6 -5.6,7.5 -5.6,7.5 -5.6,7.4 -5.7,7.3 -5.7,7.3 -5.7,7.2 -5.7,7.2 -5.7,7.1 -5.7,7 -5.7,7 -5.7,6.9 -5.7,6.9 -5.7,6.8 -5.7,6.7 -5.7,6.7 -5.7,6.6 -5.7,6.6 -5.7,6.5 -5.7,6.4 -5.7,6.4 -5.7,6.3 -5.6,6.3 -5.6,6.2 -5.6,6.1 -5.6,6.1 -5.6,6 -5.6,6 -5.6,5.9 -5.6,5.8 -5.5,5.8 -5.5,5.7 -5.5,5.7 -5.5,5.6 -5.5,5.5 -5.4,5.5 -5.4,5.4 -5.4,5.4 -5.4,5.3 -5.3,5.2 -5.3,5.2 -5.3,5.1 -5.3,5 -5.2,5 -5.2,4.9 -5.2,4.9 -5.1,4.8 -5.1,4.7 -5.1,4.7 -5,4.6 -5,4.5 -5,4.5 -4.9,4.4 -4.9,4.4 -4.8,4.3 -4.8,4.2 -4.8,4.2 -4.7,4.1 -4.7,4 -4.6,4 -4.6,3.9 -4.5,3.9 -4.5,3.8 -4.4,3.7 -4.4,3.7 -4.3,3.6 -4.3,3.5 -4.2,3.5 -4.2,3.4 -4.1,3.3 -4,3.3 -4,3.2 -3.9,3.1 -3.9,3.1 -3.8,3 -3.7,3 -3.7,2.9 -3.6,2.8 -3.6,2.8 -3.5,2.7 -3.4,2.6 -3.4,2.6 -3.3,2.5 -3.2,2.4 -3.1,2.4 -3.1,2.3 -3,2.2 -2.9,2.2 -2.8,2.1 -2.8,2 -2.7,2 -2.6,1.9 -2.5,1.8 -2.5,1.8 -2.4,1.7 -2.3,1.6 -1.7,1.2 -1.1,0.8 -1.1,0.8 -1,0.7 -1,0.7 -1,0.7 -1,0.7 -1,0.7 -0.9,0.7 -0.9,0.6 -0.9,0.6 -0.9,0.6 -0.8,0.6 -0.8,0.6 -0.8,0.6 -0.8,0.5 -0.8,0.5 -0.7,0.5 -0.7,0.5 -0.7,0.5 -0.7,0.4 -0.6,0.4 -0.6,0.4 -0.6,0.4 -0.6,0.4 -0.5,0.4 -0.5,0.3 -0.5,0.3 -0.5,0.3 -0.4,0.3 -0.4,0.3 -0.4,0.3 -0.4,0.2 -0.3,0.2 -0.3,0.2 -0.3,0.2 -0.3,0.2 -0.2,0.2 -0.2,0.1 -0.2,0.1 -0.2,0.1 -0.1,0.1 -0.1,0.1 h -0.1 v 0 0 l -8.1,5.3 -16.2,10.7 -16.3,10.6 -16.4,10.6 -16.4,10.5 -12.3,7.8 -8.2,5.2 -8.1,5.2 -8.1,5.1 -8.1,5.1 -8,5.1 -8,5 -8,5 -7.9,4.9 -7.9,4.9 -7.8,4.8 -7.7,4.8 -7.7,4.7 -7.6,4.7 -5.6,3.5 -3.7,2.3 -3.7,2.3 -3.7,2.3 -3.7,2.2 -3.6,2.2 -3.6,2.2 -3.6,2.2 -3.6,2.2 -3.5,2.2 -3.5,2.1 -3.5,2.1 -3.4,2.1 -3.4,2.1 -3.4,2.1 -3.4,2 -3.3,2 -3.3,2 -3.3,2 -3.2,2 -3.2,1.9 -3.2,1.9 -3.1,1.9 -3.1,1.9 -3.1,1.8 -3,1.8 -3,1.8 -2.9,1.8 -2.9,1.7 -2.9,1.7 -2.8,1.7 -2.8,1.7 -2.7,1.6 -2.7,1.6 -2.7,1.6 -2.6,1.6 -2.6,1.5 -2.5,1.5 -2.5,1.5 -2.4,1.5 -2.4,1.4 -2.3,1.4 -2.3,1.4 -2.2,1.3 -2.2,1.3 -2.1,1.3 -2.1,1.2 -2,1.2 -2,1.2 -1.9,1.1 -1.9,1.1 -1.8,1.1 -1.8,1.1 -1.7,1 -1.7,1 -1.6,1 -1.6,0.9 -1.5,0.9 -1.4,0.8 -1.4,0.8 -1.3,0.8 -1.3,0.7 -1.2,0.7 -1.1,0.7 -1.1,0.6 -1,0.6 -1,0.6 -0.9,0.5 -0.8,0.5 -0.8,0.4 -0.7,0.4 -0.6,0.4 -0.6,0.3 -0.5,0.3 -0.4,0.2 -0.4,0.2 -0.3,0.2 -0.2,0.1 -0.1,0.1 h -0.1 v 0 l -0.3,0.1 c -0.3,0.2 -0.2,0.1 -0.4,0.2 -0.8,0.4 -0.3,0.2 -1.5,0.6 -1.1,0.5 -0.6,0.3 -1.4,0.5 -0.7,0.3 -0.3,0.1 -1.5,0.4 -1.2,0.3 -0.7,0.2 -1.5,0.4 -0.8,0.2 -0.3,0.1 -1.5,0.2 -1.2,0.2 -0.7,0.2 -1.6,0.2 -0.3,0 -0.1,0 -0.5,0 h -0.3 -0.3 -0.3 -0.2 c -0.3,0 -0.2,0 -0.4,0 -0.6,-0.1 -0.3,0 -0.9,-0.3 -0.6,-0.2 -0.5,0 -0.6,-0.3 -0.3,-0.1 -0.2,0 -0.2,-0.4 -0.2,-0.4 -0.2,-0.2 0,-0.5 0,-0.3 0,-0.1 0.4,-0.6 0.3,-0.5 0.1,-0.3 0.6,-0.7 0.1,-0.1 0,-0.1 0.3,-0.2 l 0.2,-0.1 v 0 0 l 0.1,-0.1 0.1,-0.1 0.2,-0.1 0.2,-0.1 0.3,-0.2 0.3,-0.2 0.3,-0.2 0.4,-0.3 0.4,-0.3 0.5,-0.3 0.5,-0.3 0.6,-0.4 0.6,-0.4 0.6,-0.4 0.7,-0.5 0.7,-0.5 0.8,-0.5 0.8,-0.5 0.8,-0.6 0.9,-0.6 0.9,-0.6 1,-0.6 1,-0.7 1,-0.7 1.1,-0.7 1.1,-0.8 1.1,-0.8 1.2,-0.8 1.2,-0.8 1.3,-0.9 1.3,-0.9 1.3,-0.9 1.4,-0.9 1.4,-0.9 1.4,-1 1.5,-1 1.5,-1 1.5,-1 1.6,-1.1 1.6,-1.1 1.6,-1.1 1.7,-1.1 1.7,-1.2 1.7,-1.2 1.8,-1.2 1.8,-1.2 1.8,-1.2 1.8,-1.3 1.9,-1.3 1.9,-1.3 1.9,-1.3 2,-1.4 2,-1.4 2,-1.4 2,-1.4 2.1,-1.4 2.1,-1.5 2.1,-1.5 2.2,-1.5 2.2,-1.5 2.2,-1.5 2.2,-1.6 2.3,-1.6 2.3,-1.6 2.3,-1.6 2.3,-1.6 2.4,-1.7 2.4,-1.7 2.4,-1.7 2.4,-1.7 2.5,-1.7 2.5,-1.7 2.5,-1.8 2.5,-1.8 2.5,-1.8 2.6,-1.8 3.9,-2.7 5.3,-3.7 5.3,-3.8 5.4,-3.8 5.5,-3.9 5.6,-4 5.6,-4 5.7,-4.1 5.8,-4.1 5.8,-4.2 5.9,-4.2 6,-4.3 6,-4.3 6.1,-4.4 6.1,-4.4 6.2,-4.5 6.2,-4.5 6.3,-4.6 6.3,-4.6 6.4,-4.7 6.4,-4.7 6.4,-4.7 6.5,-4.8 6.5,-4.8 6.5,-4.8 6.5,-4.9 6.6,-4.9 6.6,-4.9 6.6,-5 9.9,-7.5 13.3,-10.1 13.3,-10.2 13.3,-10.2 13.3,-10.3 13.3,-10.3 13.2,-10.4 13.1,-10.4 13,-10.4 12.9,-10.4 9.6,-7.8 6.4,-5.2 6.3,-5.2 6.3,-5.2 6.2,-5.2 6.2,-5.2 6.1,-5.2 6.1,-5.2 6,-5.2 6,-5.1 5.9,-5.1 5.9,-5.1 5.8,-5.1 5.7,-5.1 5.7,-5 5.6,-5 5.5,-5 5.4,-5 5.4,-4.9 5.3,-4.9 5.2,-4.9 5.1,-4.9 5,-4.8 4.9,-4.8 4.8,-4.8 4.8,-4.7 4.7,-4.7 4.6,-4.6 4.5,-4.6 3.3,-3.4 2.1,-2.3 2.1,-2.3 2.1,-2.2 2.1,-2.2 2,-2.2 2,-2.2 2,-2.2 1.9,-2.2 1.9,-2.2 1.9,-2.2 1.9,-2.1 1.8,-2.1 1.8,-2.1 1.8,-2.1 1.7,-2.1 1.7,-2.1 1.7,-2.1 1.6,-2.1 1.6,-2 1.6,-2 1.5,-2 0.8,-1 c 0.1,-0.1 0.2,-0.2 0.2,-0.3 l 2.1,-2.2 4.2,-4.4 4.2,-4.4 4.1,-4.4 4.1,-4.4 4.1,-4.4 6,-6.6 7.9,-8.8 5.8,-6.6 3.9,-4.4 3.8,-4.4 3.8,-4.4 3.7,-4.4 3.7,-4.4 3.7,-4.4 3.6,-4.4 3.6,-4.4 3.6,-4.3 3.5,-4.3 3.5,-4.3 3.5,-4.3 3.4,-4.3 3.4,-4.3 3.4,-4.3 3.3,-4.3 3.3,-4.3 3.3,-4.3 3.2,-4.3 3.2,-4.2 3.2,-4.2 3.1,-4.2 3.1,-4.2 3,-4.2 3,-4.2 3,-4.1 2.9,-4.1 2.9,-4.1 2.9,-4.1 2.8,-4.1 2.8,-4.1 2.8,-4 2.7,-4 2.7,-4 2.7,-4 2.6,-3.9 2.6,-3.9 2.6,-3.9 2.5,-3.9 2.5,-3.9 2.5,-3.8 2.4,-3.8 2.4,-3.8 2.4,-3.7 2.3,-3.7 2.3,-3.7 2.3,-3.7 2.2,-3.6 2.2,-3.6 2.2,-3.6 2.1,-3.5 2.1,-3.5 2.1,-3.5 2,-3.4 2,-3.4 2,-3.4 1.9,-3.3 1.9,-3.3 1.9,-3.3 1.8,-3.2 1.8,-3.2 1.8,-3.1 1.7,-3.1 1.7,-3.1 1.7,-3 1.6,-3 1.6,-2.9 1.6,-2.9 1.5,-2.9 1.5,-2.8 1.5,-2.8 1.4,-2.7 1.4,-2.7 1.4,-2.6 1.3,-2.6 1.3,-2.5 1.3,-2.5 1.2,-2.4 1.2,-2.4 1.2,-2.3 1.1,-2.3 1.1,-2.2 1.1,-2.2 1.1,-2.1 1,-2.1 1,-2 1,-2 0.9,-1.9 0.9,-1.9 0.9,-1.8 0.8,-1.8 0.8,-1.7 0.8,-1.6 0.7,-1.6 0.7,-1.5 0.7,-1.5 0.6,-1.4 0.6,-1.3 0.6,-1.3 0.6,-1.2 0.5,-1.2 0.5,-1.1 0.5,-1 0.4,-1 0.4,-0.9 0.4,-0.8 0.3,-0.8 0.3,-0.7 0.3,-0.6 0.2,-0.6 0.2,-0.5 0.2,-0.4 0.2,-0.4 0.1,-0.3 0.1,-0.2 0.1,-0.1 v -0.1 -0.1 -0.1 l 0.1,-0.2 0.1,-0.2 0.1,-0.3 0.1,-0.3 0.2,-0.4 0.2,-0.5 0.2,-0.5 0.2,-0.6 0.2,-0.6 0.2,-0.7 0.3,-0.7 0.3,-0.8 0.3,-0.8 0.3,-0.9 0.3,-0.9 0.3,-1 0.4,-1 0.4,-1.1 0.4,-1.1 0.4,-1.2 0.4,-1.2 0.4,-1.2 0.4,-1.3 0.4,-1.3 0.5,-1.4 0.5,-1.4 0.5,-1.4 0.5,-1.5 0.5,-1.5 0.5,-1.6 0.5,-1.6 0.5,-1.6 0.5,-1.7 0.8,-2.6 1.1,-3.5 1.1,-3.6 1.1,-3.8 1.1,-3.9 1.1,-4 1.1,-4.1 1.1,-4.2 1.1,-4.3 1.1,-4.4 1,-4.4 1,-4.5 1,-4.6 0.9,-4.6 0.9,-4.7 0.9,-4.7 0.8,-4.8 0.8,-4.8 0.7,-4.8 0.7,-4.9 0.6,-4.9 0.5,-4.9 0.5,-4.9 0.4,-4.9 0.3,-4.9 0.2,-4.9 0.1,-4.9 0.1,-4.8 v -4.8 l -0.1,-4.8 -0.2,-3.6 -0.1,-2.4 -0.2,-2.3 -0.2,-2.3 -0.2,-2.3 -0.3,-2.3 -0.3,-2.3 -0.3,-2.3 -0.3,-2.2 -0.4,-2.2 -0.4,-2.2 -0.4,-2.2 -0.5,-2.2 -0.5,-2.2 -0.5,-2.1 -0.6,-2.1 -0.6,-2.1 -0.6,-2.1 -0.7,-2 -0.7,-2 -0.7,-2 -0.8,-2 -0.8,-1.9 -0.9,-1.9 -0.9,-1.9 -0.9,-1.8 -1,-1.8 -1,-1.8 -1.1,-1.7 -1.1,-1.7 -1.1,-1.7 -1.2,-1.7 -0.6,-0.8 -0.8,-1.1 -1.7,-2.2 -1.8,-2.2 -1.9,-2.1 -1.9,-2.1 -2,-2.1 -2,-2 -2.1,-2 -2.2,-2 -2.3,-1.9 -2.3,-1.9 -2.4,-1.9 -2.5,-1.8 -2.6,-1.8 -2.7,-1.8 -2.8,-1.7 -2.9,-1.7 -3,-1.7 -2.3,-1.2 -1.6,-0.8 -1.6,-0.8 -1.6,-0.8 -1.7,-0.8 -1.7,-0.8 -1.7,-0.8 -1.8,-0.7 -1.8,-0.7 -1.8,-0.7 -1.9,-0.7 -1.9,-0.7 -1.9,-0.7 -2,-0.7 -2,-0.7 -2,-0.7 -2.1,-0.7 -2.1,-0.6 -2.1,-0.6 -2.2,-0.6 -2.2,-0.6 -2.2,-0.6 -2.3,-0.6 -2.3,-0.6 -2.4,-0.6 -2.4,-0.6 -2.4,-0.5 -2.5,-0.5 -1.3,-0.3 v 0 l -1.3,-0.3 -2.5,-0.5 -2.4,-0.5 -2.4,-0.5 -2.3,-0.4 -2.2,-0.4 -2.2,-0.4 -2.1,-0.4 -2.1,-0.4 -2,-0.3 -2,-0.3 -1.9,-0.3 -1.9,-0.3 -1.8,-0.3 -1.8,-0.2 -1.7,-0.2 -1.7,-0.2 -1.6,-0.2 -1.6,-0.2 -1.5,-0.2 -1.5,-0.1 -1.4,-0.1 -1.4,-0.1 -1.3,-0.1 -1.3,-0.1 -1.2,-0.1 -1.2,-0.1 -1.1,-0.1 h -1.1 -1 -1 -1 -0.9 -0.9 -0.8 -0.8 -0.7 -0.7 -0.6 -0.6 -0.6 -0.5 -0.6 l -0.8,0.1 -0.6,0.1 h -0.4 -0.3 v 0 h -0.2 -0.2 -0.1 v 0 c -4.3,1 -7.7,0.7 -7.6,-0.7 0.1,-1.2 2.6,-2.7 6,-3.8 v 0 l 0.6,-0.2 0.8,-0.2 0.9,-0.2 1,-0.2 0.5,-0.1 h 0.2 l 0.6,-0.1 0.7,-0.1 0.8,-0.2 0.8,-0.2 0.9,-0.2 1,-0.2 1,-0.2 1.1,-0.2 1.2,-0.2 1.2,-0.2 1.3,-0.3 1.4,-0.3 1.4,-0.3 1.5,-0.3 1.5,-0.3 1.6,-0.3 1.7,-0.3 1.7,-0.3 1.8,-0.3 1.8,-0.3 1.9,-0.3 1.9,-0.3 2,-0.3 2,-0.3 2,-0.3 2.1,-0.3 2.1,-0.3 2.2,-0.3 2.2,-0.3 2.2,-0.3 2.3,-0.3 2.3,-0.3 2.4,-0.3 3.6,-0.4 4.9,-0.5 5,-0.5 5.1,-0.5 5.2,-0.4 5.3,-0.4 5.3,-0.3 5.4,-0.2 5.4,-0.2 5.5,-0.1 z" />
	<path
   id="Verde"
   inkscape:connector-curvature="0"
   class="st4"
   d="m 1643.7,309.9 h 2.8 2.7 l 2.7,0.1 h 1.2 2.2 l 4.3,0.1 4.3,0.2 4.2,0.2 4.2,0.3 4.1,0.3 4,0.3 4,0.4 3.9,0.4 3.9,0.5 3.8,0.5 3.7,0.6 3.7,0.6 3.6,0.7 3.6,0.7 3.5,0.7 3.4,0.8 3.4,0.8 3.3,0.9 3.3,0.9 3.2,1 3.1,1 3.1,1.1 3,1.1 3,1.1 2.9,1.2 2.8,1.2 2.8,1.3 2.7,1.3 2.7,1.4 2.6,1.4 2.5,1.5 2.5,1.5 2.4,1.6 2.3,1.6 2.3,1.6 2.2,1.7 2.2,1.7 2.1,1.8 2,1.8 2,1.9 1.9,1.9 1.8,2 1.8,2 1.7,2.1 1.7,2.1 1.6,2.2 1.5,2.2 1.5,2.2 1.4,2.3 1.3,2.3 1.3,2.4 1.2,2.4 1.2,2.5 1.1,2.5 1,2.6 1,2.6 0.9,2.7 0.8,2.7 0.8,2.8 0.7,2.8 0.6,2.9 0.6,2.9 0.5,2.9 0.2,1.5 v 0 l 0.2,1.4 0.4,2.7 0.3,2.7 0.3,2.8 0.3,2.8 0.3,2.8 0.2,2.8 0.2,2.8 0.2,2.8 0.1,2.8 0.1,2.9 0.1,2.9 v 2.9 2.9 2.9 2.9 l -0.1,4.4 -0.2,5.9 -0.4,5.9 -0.5,6 -0.6,6 -0.7,6 -0.8,6.1 -0.8,6.1 -0.9,6.1 -1,6.1 -1.1,6.1 -1.2,6.2 -1.3,6.2 -1.3,6.2 -1.4,6.2 -1.5,6.2 -1.6,6.2 -1.6,6.2 -1.7,6.2 -1.8,6.2 -1.8,6.2 -1.9,6.1 -1.9,6.1 -2,6.1 -2,6.1 -2.1,6.1 -2.1,6 -2.2,6 -2.2,6 -2.3,5.9 -2.3,5.9 -2.3,5.8 -2.3,5.8 -2.4,5.8 -2.4,5.7 -2.4,5.6 -2.4,5.6 -2.5,5.5 -2.5,5.5 -2.5,5.4 -2.5,5.3 -2.5,5.3 -2.5,5.2 -2.5,5.1 -2.5,5 -2.5,5 -2.5,4.9 -2.5,4.8 -2.5,4.7 -2.5,4.6 -2.5,4.5 -2.4,4.4 -2.4,4.3 -2.4,4.2 -2.4,4.1 -2.4,4 -1.2,1.9 v 0 l -2.6,4.3 -5.2,8.6 -5.2,8.5 -5.2,8.5 -5.3,8.4 -5.3,8.4 -5.3,8.3 -5.3,8.2 -5.3,8.2 -5.3,8.1 -5.4,8 -5.4,8 -5.4,7.9 -5.4,7.9 -5.4,7.8 -5.4,7.7 -5.4,7.7 -5.4,7.6 -5.4,7.5 -5.4,7.5 -5.4,7.4 -5.4,7.4 -5.4,7.3 -5.4,7.2 -5.4,7.2 -5.4,7.1 -5.4,7 -5.4,7 -5.4,6.9 -5.4,6.9 -5.4,6.8 -5.4,6.7 -5.4,6.7 -5.4,6.6 -5.4,6.5 -5.4,6.5 -5.4,6.4 -5.3,6.3 -5.3,6.3 -5.3,6.2 -5.3,6.1 -5.3,6.1 -5.3,6 -5.2,5.9 -5.2,5.9 -5.2,5.8 -5.2,5.8 -5.2,5.7 -5.1,5.6 -5.1,5.6 -5.1,5.5 -5.1,5.4 -5,5.4 -5,5.3 -5,5.2 -4.9,5.2 -4.9,5.1 -4.9,5 -4.8,5 -4.8,4.9 -4.8,4.8 -4.7,4.8 -4.7,4.7 -4.7,4.6 -4.6,4.6 -4.6,4.5 -4.5,4.4 -4.5,4.4 -4.5,4.3 -4.4,4.2 -4.4,4.2 -4.3,4.1 -4.3,4 -4.2,4 -4.2,3.9 -4.1,3.8 -4.1,3.8 -4,3.7 -4,3.6 -3.9,3.5 -3.9,3.5 -3.8,3.4 -3.8,3.3 -3.7,3.3 -3.6,3.2 -3.6,3.1 -3.5,3.1 -3.5,3 -3.4,2.9 -3.3,2.9 -3.3,2.8 -3.2,2.7 -3.1,2.7 -3.1,2.6 -3,2.5 -2.9,2.4 -2.9,2.4 -2.8,2.3 -2.7,2.2 -2.6,2.2 -2.6,2.1 -2.5,2 -2.4,2 -2.3,1.9 -2.3,1.8 -1.6,1.3 -1.1,0.9 -1.1,0.8 -1,0.8 -1,0.8 -1,0.8 -1,0.8 -1,0.7 -0.9,0.7 -0.9,0.7 -0.9,0.7 -0.9,0.7 -0.8,0.7 -0.8,0.6 -0.8,0.6 -0.8,0.6 -0.8,0.6 -0.7,0.6 -0.7,0.5 -0.7,0.5 -0.7,0.5 -0.7,0.5 -0.6,0.5 -0.6,0.5 -0.6,0.4 -0.6,0.4 -0.5,0.4 -0.5,0.4 -0.5,0.4 -0.5,0.3 -0.4,0.3 -0.4,0.3 -0.4,0.3 -0.4,0.3 -0.4,0.3 -0.3,0.2 -0.3,0.2 -0.3,0.2 -0.3,0.2 -0.2,0.2 -0.2,0.2 -0.2,0.1 -0.2,0.1 -0.1,0.1 -0.1,0.1 h -0.1 v 0 0 l -7.7,5.7 -15.5,11.3 -15.6,11.3 -15.6,11.3 -15.6,11.2 -11.7,8.3 -7.8,5.5 -7.8,5.5 -7.8,5.5 -7.7,5.4 -7.7,5.4 -7.6,5.3 -7.6,5.3 -7.6,5.3 -7.5,5.2 -7.4,5.1 -7.4,5.1 -7.3,5 -7.2,5 -5.4,3.7 -3.6,2.4 -3.5,2.4 -3.5,2.4 -3.5,2.4 -3.5,2.4 -3.4,2.3 -3.4,2.3 -3.4,2.3 -3.4,2.3 -3.3,2.3 -3.3,2.3 -3.3,2.2 -3.3,2.2 -3.2,2.2 -3.2,2.2 -3.2,2.1 -3.1,2.1 -3.1,2.1 -3.1,2.1 -3.1,2.1 -3,2 -3,2 -3,2 -2.9,2 -2.9,1.9 -2.8,1.9 -2.8,1.9 -2.8,1.9 -2.7,1.8 -2.7,1.8 -2.7,1.8 -2.6,1.7 -2.6,1.7 -2.5,1.7 -2.5,1.7 -2.5,1.6 -2.4,1.6 -2.4,1.6 -2.3,1.5 -2.3,1.5 -2.2,1.5 -2.2,1.4 -2.1,1.4 -2.1,1.4 -2,1.4 -2,1.3 -2,1.3 -1.9,1.3 -1.9,1.2 -1.8,1.2 -1.8,1.2 -1.7,1.1 -1.6,1.1 -1.6,1 -1.5,1 -1.5,1 -1.4,0.9 -1.4,0.9 -1.3,0.9 -1.3,0.8 -1.2,0.8 -1.1,0.8 -1.1,0.7 -1,0.7 -1,0.6 -0.9,0.6 -0.8,0.6 -0.8,0.5 -0.7,0.5 -0.7,0.4 -0.6,0.4 -0.5,0.3 -0.5,0.3 -0.4,0.3 -0.3,0.2 -0.3,0.2 -0.2,0.1 -0.1,0.1 h -0.1 v 0 l -0.3,0.2 c -0.3,0.2 -0.2,0.1 -0.4,0.2 -0.7,0.4 -0.3,0.2 -1.4,0.6 -1,0.5 -0.6,0.3 -1.3,0.5 -0.7,0.3 -0.2,0.1 -1.4,0.4 -1.2,0.4 -0.7,0.3 -1.5,0.4 -0.7,0.2 -0.3,0.1 -1.5,0.3 -1.3,0.2 -0.7,0.2 -1.6,0.3 -0.3,0 -0.1,0 -0.5,0 h -0.3 -0.7 -0.3 -0.3 c -0.4,0 -0.2,0 -0.4,0 -0.6,0 -0.3,0 -1,-0.2 -0.7,-0.1 -0.5,0 -0.7,-0.2 -0.3,-0.1 -0.2,0 -0.3,-0.4 -0.3,-0.3 -0.3,-0.2 -0.2,-0.4 -0.1,-0.3 -0.1,-0.1 0.2,-0.5 0.2,-0.5 0.1,-0.3 0.4,-0.6 0.1,-0.2 0,-0.1 0.3,-0.2 l 0.2,-0.2 v 0 0 l 0.1,-0.1 0.1,-0.1 0.2,-0.1 0.2,-0.2 0.3,-0.2 0.3,-0.2 0.3,-0.2 0.4,-0.3 0.4,-0.3 0.5,-0.3 0.5,-0.4 0.5,-0.4 0.6,-0.4 0.6,-0.5 0.7,-0.5 0.7,-0.5 0.7,-0.5 0.8,-0.6 0.8,-0.6 0.8,-0.6 0.9,-0.7 0.9,-0.7 1,-0.7 1,-0.7 1,-0.8 1.1,-0.8 1.1,-0.8 1.1,-0.9 1.2,-0.9 1.2,-0.9 1.2,-0.9 1.3,-1 1.3,-1 1.3,-1 1.4,-1 1.4,-1.1 1.4,-1.1 1.5,-1.1 1.5,-1.1 1.5,-1.2 1.6,-1.2 1.6,-1.2 1.6,-1.2 1.6,-1.3 1.7,-1.3 1.7,-1.3 1.7,-1.3 1.8,-1.4 1.8,-1.4 1.8,-1.4 1.8,-1.4 1.9,-1.4 1.9,-1.5 1.9,-1.5 2,-1.5 2,-1.5 2,-1.6 2,-1.6 2.1,-1.6 2.1,-1.6 2.1,-1.6 2.1,-1.7 2.2,-1.7 2.2,-1.7 2.2,-1.7 2.2,-1.7 2.3,-1.8 2.3,-1.8 2.3,-1.8 2.3,-1.8 2.3,-1.8 2.4,-1.9 2.4,-1.9 2.4,-1.9 2.4,-1.9 2.5,-1.9 3.7,-2.9 5,-4 5.1,-4 5.2,-4.1 5.3,-4.2 5.3,-4.2 5.4,-4.3 5.5,-4.3 5.5,-4.4 5.6,-4.5 5.6,-4.5 5.7,-4.6 5.8,-4.6 5.8,-4.7 5.9,-4.7 5.9,-4.8 6,-4.8 6,-4.9 6,-4.9 6.1,-5 6.1,-5 6.1,-5 6.2,-5.1 6.2,-5.1 6.2,-5.1 6.2,-5.2 6.3,-5.2 6.3,-5.2 6.3,-5.3 9.5,-8 12.7,-10.7 12.7,-10.8 12.7,-10.9 12.7,-10.9 12.7,-11 12.6,-11 12.6,-11.1 12.5,-11.1 12.4,-11.1 9.2,-8.3 6.1,-5.5 6,-5.5 6,-5.5 6,-5.5 5.9,-5.5 5.9,-5.5 5.8,-5.5 5.8,-5.5 5.7,-5.5 5.7,-5.5 5.6,-5.4 5.5,-5.4 5.5,-5.4 5.4,-5.4 5.3,-5.3 5.3,-5.3 5.2,-5.3 5.1,-5.3 5.1,-5.2 5,-5.2 4.9,-5.2 4.8,-5.1 4.7,-5.1 4.6,-5.1 4.5,-5 4.4,-5 4.4,-4.9 4.3,-4.9 4.2,-4.8 3.1,-3.6 2,-2.4 2,-2.4 1.9,-2.4 1.9,-2.4 1.9,-2.3 1.9,-2.3 1.8,-2.3 1.8,-2.3 1.8,-2.3 1.8,-2.3 1.7,-2.3 1.7,-2.2 1.7,-2.2 1.6,-2.2 1.6,-2.2 1.6,-2.2 1.5,-2.2 1.5,-2.2 1.5,-2.1 0.7,-1.1 c 0.1,-0.1 0.1,-0.2 0.2,-0.2 l 2,-2.3 4,-4.6 4,-4.7 4,-4.7 5.9,-7 7.7,-9.3 7.6,-9.3 7.4,-9.3 7.3,-9.3 5.4,-7 3.5,-4.6 3.5,-4.6 3.5,-4.6 3.4,-4.6 3.4,-4.6 3.4,-4.6 3.3,-4.6 3.3,-4.6 3.3,-4.6 3.2,-4.6 3.2,-4.6 3.2,-4.6 3.1,-4.5 3.1,-4.5 3.1,-4.5 3,-4.5 3,-4.5 3,-4.5 2.9,-4.5 2.9,-4.4 2.9,-4.4 2.8,-4.4 2.8,-4.4 2.8,-4.4 2.7,-4.4 2.7,-4.3 2.7,-4.3 2.6,-4.3 2.6,-4.3 2.6,-4.2 2.6,-4.2 2.5,-4.2 2.5,-4.2 2.5,-4.1 2.4,-4.1 2.4,-4.1 2.4,-4.1 2.3,-4 2.3,-4 2.3,-4 2.2,-4 2.2,-3.9 2.2,-3.9 2.1,-3.9 2.1,-3.8 2.1,-3.8 2,-3.8 2,-3.7 2,-3.7 1.9,-3.7 1.9,-3.6 1.9,-3.6 1.8,-3.5 1.8,-3.5 1.8,-3.5 1.8,-3.4 1.7,-3.4 1.7,-3.3 1.7,-3.3 1.6,-3.3 1.6,-3.2 1.6,-3.2 1.5,-3.1 1.5,-3.1 1.5,-3 1.4,-3 1.4,-2.9 1.4,-2.9 1.3,-2.8 1.3,-2.8 1.3,-2.7 1.3,-2.7 1.2,-2.6 1.2,-2.6 1.2,-2.5 1.1,-2.5 1.1,-2.4 1.1,-2.4 1,-2.3 1,-2.3 1,-2.2 0.9,-2.2 0.9,-2.1 0.9,-2 0.9,-2 0.8,-1.9 0.8,-1.9 0.8,-1.8 0.7,-1.7 0.7,-1.7 0.7,-1.6 0.6,-1.6 0.6,-1.5 0.6,-1.4 0.6,-1.4 0.5,-1.3 0.5,-1.2 0.5,-1.2 0.4,-1.1 0.4,-1 0.4,-1 0.3,-0.9 0.3,-0.8 0.3,-0.7 0.3,-0.7 0.2,-0.6 0.2,-0.5 0.2,-0.5 0.1,-0.4 0.1,-0.3 0.1,-0.2 0.1,-0.2 v -0.1 -0.1 -0.1 l 0.1,-0.2 0.1,-0.2 0.1,-0.3 0.1,-0.4 0.1,-0.4 0.2,-0.5 0.2,-0.5 0.2,-0.6 0.2,-0.7 0.2,-0.7 0.3,-0.8 0.3,-0.8 0.3,-0.9 0.3,-0.9 0.3,-1 0.3,-1 0.3,-1.1 0.4,-1.1 0.4,-1.2 0.4,-1.2 0.4,-1.3 0.4,-1.3 0.4,-1.4 0.4,-1.4 0.4,-1.4 0.4,-1.5 0.5,-1.5 0.5,-1.6 0.5,-1.6 0.5,-1.7 0.5,-1.7 0.5,-1.7 0.5,-1.8 0.5,-1.8 0.5,-1.8 0.8,-2.8 1,-3.9 1,-4 1,-4.1 1,-4.2 1,-4.3 1,-4.5 1,-4.5 1,-4.6 1,-4.7 1,-4.8 0.9,-4.9 0.9,-4.9 0.9,-5 0.8,-5 0.8,-5.1 0.7,-5.1 0.7,-5.1 0.6,-5.2 0.6,-5.2 0.5,-5.2 0.4,-5.2 0.4,-5.2 0.3,-5.2 0.2,-5.2 0.1,-5.2 0.1,-5.1 v -5.1 l -0.1,-5.1 -0.2,-3.8 -0.1,-2.5 -0.2,-2.5 -0.2,-2.5 -0.2,-2.5 -0.2,-2.4 -0.3,-2.4 -0.3,-2.4 -0.3,-2.4 -0.4,-2.4 -0.4,-2.4 -0.4,-2.3 -0.5,-2.3 -0.5,-2.3 -0.5,-2.3 -0.5,-2.2 -0.6,-2.2 -0.6,-2.2 -0.6,-2.2 -0.7,-2.1 -0.7,-2.1 -0.8,-2.1 -0.8,-2.1 -0.8,-2 -0.9,-2 -0.9,-2 -0.9,-1.9 -1,-1.9 -1,-1.9 -1.1,-1.8 -1.1,-1.8 -1.1,-1.8 -0.6,-0.9 -0.8,-1.2 -1.7,-2.3 -1.7,-2.3 -1.8,-2.3 -1.8,-2.2 -1.9,-2.2 -2,-2.2 -2,-2.1 -2.1,-2.1 -2.2,-2.1 -2.2,-2 -2.3,-2 -2.4,-2 -2.5,-1.9 -2.6,-1.9 -2.7,-1.8 -2.8,-1.8 -2.9,-1.8 -2.2,-1.3 -1.5,-0.9 -1.5,-0.8 -1.6,-0.8 -1.6,-0.8 -1.6,-0.8 -1.7,-0.8 -1.7,-0.8 -1.7,-0.8 -1.8,-0.8 -1.8,-0.8 -1.8,-0.8 -1.8,-0.7 -1.9,-0.7 -1.9,-0.7 -1.9,-0.7 -2,-0.7 -2,-0.7 -2,-0.7 -2.1,-0.7 -2.1,-0.7 -2.1,-0.6 -2.2,-0.6 -2.2,-0.6 -2.3,-0.6 -2.3,-0.6 -2.3,-0.6 -2.4,-0.6 -1.2,-0.3 -2.4,-0.5 -4.8,-1 -4.8,-0.9 -4.8,-0.8 -4.7,-0.8 -4.7,-0.7 -4.6,-0.6 -4.6,-0.5 -4.5,-0.5 -4.4,-0.4 -3.3,-0.3 -2.1,-0.2 -2.1,-0.1 -2.1,-0.1 -2.1,-0.1 -2,-0.1 -2,-0.1 -2,-0.1 -1.9,-0.1 -1.9,-0.1 h -1.9 -1.8 -1.8 -1.8 -1.7 -1.7 -1.6 -1.6 -1.5 -1.5 -1.5 -1.4 -1.4 -1.3 -1.3 -1.2 -1.1 -1.1 -1 -1 -0.9 -0.9 -0.8 -0.7 -0.7 -0.6 -0.5 -0.5 -0.4 -0.3 -0.3 -0.2 -0.1 v 0 0 c -3.4,0.3 -5.2,-0.5 -4.1,-1.9 1.2,-1.6 5.5,-3.4 9.6,-4 v 0 0 h 0.1 0.1 0.2 l 0.4,-0.1 0.5,-0.1 0.7,-0.1 0.8,-0.1 0.9,-0.1 1,-0.1 1.1,-0.2 1.2,-0.2 1.3,-0.2 1.4,-0.2 1.5,-0.2 1.6,-0.2 1.7,-0.2 1.8,-0.2 1.9,-0.3 2,-0.3 2.1,-0.3 2.1,-0.3 2.2,-0.3 2.3,-0.3 2.4,-0.3 2.4,-0.3 2.5,-0.3 2.6,-0.3 2.6,-0.3 2.7,-0.3 2.7,-0.3 2.8,-0.3 2.8,-0.3 2.8,-0.3 2.9,-0.3 4.4,-0.5 6,-0.6 6.1,-0.6 6.2,-0.6 6.2,-0.5 6.2,-0.5 6.3,-0.5 6.2,-0.4 6.2,-0.4 4.6,-0.2 3.1,-0.1 3,-0.1 3,-0.1 3,-0.1 2.9,-0.1 2.9,-0.1 h 2.9 z" />
</g>
<path
   id="Linea"
   inkscape:connector-curvature="0"
   inkscape:label="Intersezione anelli-fondo"
   sodipodi:nodetypes="csc"
   class="st5"
   d="m 1402.05,314.7 c 100,56.6 221.5,207 245.6,271.2 1.5,3.9 6.4,14.7 6.4,14.7"
   inkscape:export-filename="/home/sav/Documents/GitHub/mozita-l10n-addon/img/icon-light-96.png"
   inkscape:export-xdpi="4.6079998"
   inkscape:export-ydpi="4.6079998" />
<rect
   style="fill:none;fill-opacity:1;stroke:none;stroke-width:108.428;stroke-opacity:1"
   id="rect880"
   width="2000"
   height="2000"
   x="0"
   y="0"
   inkscape:export-filename="/home/sav/Documents/GitHub/mozita-l10n-addon/img/icon-light-96.png"
   inkscape:export-xdpi="4.6079998"
   inkscape:export-ydpi="4.6079998" /></svg>
